<svg xmlns="http://www.w3.org/2000/svg" width="155.378" height="47.927" viewBox="0 0 155.378 47.927"><g transform="translate(0 0)"><path d="M260.772,320.051c-.209.1-.354.146-.459.209-1.729,1.039-3.45,2.088-5.181,3.125l-1.324.77q-3.247,1.874-6.5,3.742a11.537,11.537,0,0,0-5.78,7.126c-.02.077-.029.156-.046.233a10.97,10.97,0,0,0,1.039,8.508c3.709,6.376,7.479,12.689,11.4,18.94a11.263,11.263,0,0,0,16.793,2.625c-3.229-5.355-6.459-10.731-9.752-16.19,4.251-2.542,8.46-5.084,12.71-7.646l-.012-.02.657-.382v-.048m-8.645,22.85c-2.542,1.312-6.543.02-8.5-2.709a7.675,7.675,0,0,1,.917-9.96C260.647,355.493,263.147,359.681,265.668,363.89Zm3.043-24.36.006.008-5.878,3.409-.006-.01-2.862,1.652c-.661.387-1.325.772-1.995,1.147a15.6,15.6,0,0,0-5.77,5.407l-5.9-9.42A7.318,7.318,0,0,1,245.162,336a7.645,7.645,0,0,1,3.879-4.636q3.268-1.862,6.52-3.753l4.122-2.252" transform="translate(-241.059 -320.051)" fill="#050404"/><g transform="translate(39.805 10.571)"><path d="M311.37,354.613v8.953h-6.193V337.377h6.193v1.418a6.543,6.543,0,0,1,4.663-1.716,8.123,8.123,0,0,1,6.118,2.574,11.327,11.327,0,0,1,0,14.1,8.121,8.121,0,0,1-6.118,2.574A6.54,6.54,0,0,1,311.37,354.613Zm0-11.155v6.528a3.369,3.369,0,0,0,3.134,1.9,3.5,3.5,0,0,0,1.119-.187,4.186,4.186,0,0,0,1.194-.672,3.35,3.35,0,0,0,1.026-1.6,9.725,9.725,0,0,0,0-5.465,3.358,3.358,0,0,0-1.026-1.586,4.325,4.325,0,0,0-1.175-.672,3.492,3.492,0,0,0-1.138-.186A3.362,3.362,0,0,0,311.37,343.458Z" transform="translate(-305.177 -337.079)"/><path d="M349.392,337.079a6.382,6.382,0,0,1,4.663,1.716v-1.418h6.193V356.03h-6.193v-1.417a6.38,6.38,0,0,1-4.663,1.716,8.18,8.18,0,0,1-6.118-2.537,11.328,11.328,0,0,1,0-14.1A8.066,8.066,0,0,1,349.392,337.079Zm-2.163,9.662a8.307,8.307,0,0,0,.391,2.723,3.354,3.354,0,0,0,1.027,1.6,3.908,3.908,0,0,0,1.175.653,3.84,3.84,0,0,0,1.138.168,3.394,3.394,0,0,0,3.1-1.9v-6.528a3.336,3.336,0,0,0-3.1-1.94,3.484,3.484,0,0,0-1.138.186,4.3,4.3,0,0,0-1.175.672,3.351,3.351,0,0,0-1.027,1.6A8.444,8.444,0,0,0,347.229,346.741Z" transform="translate(-318.69 -337.079)"/><path d="M378.144,364.046V359.01q4.177,0,4.178-2.8L375.9,337.559h6.417l3.357,12.833,3.283-12.833h6.416l-6.416,18.653q-1.493,4.366-3.879,6.119Q382.806,364.045,378.144,364.046Z" transform="translate(-331.997 -337.261)"/><path d="M415.118,354.243v9.513l-3.1.037V337.978h3.1v2.051a6.4,6.4,0,0,1,5.259-2.35,7.063,7.063,0,0,1,5.783,2.612,12.021,12.021,0,0,1,0,13.655,7.061,7.061,0,0,1-5.783,2.611A6.438,6.438,0,0,1,415.118,354.243Zm0-11.341v8.431a5.08,5.08,0,0,0,4.663,2.836,4.6,4.6,0,0,0,3.842-1.9,8.27,8.27,0,0,0,1.455-5.148,8.187,8.187,0,0,0-1.455-5.129,4.619,4.619,0,0,0-3.842-1.884A5.09,5.09,0,0,0,415.118,342.9Z" transform="translate(-345.692 -337.307)"/><path d="M458.893,346.11l-.038,1.381h-12.5a7.116,7.116,0,0,0,1.455,4.7,5.06,5.06,0,0,0,4.179,1.977,5.428,5.428,0,0,0,4.551-2.127l1.566,1.717q-2.014,2.8-6.417,2.8a7.974,7.974,0,0,1-6.23-2.611,9.949,9.949,0,0,1-2.313-6.79,10.351,10.351,0,0,1,2.164-6.827,7.394,7.394,0,0,1,6.006-2.649,6.794,6.794,0,0,1,5.6,2.388A9.254,9.254,0,0,1,458.893,346.11Zm-12.5-.708h9.7a5.694,5.694,0,0,0-1.25-3.843,4.308,4.308,0,0,0-3.45-1.455,4.52,4.52,0,0,0-3.488,1.436A6.211,6.211,0,0,0,446.395,345.4Z" transform="translate(-357.496 -337.307)"/><path d="M477.735,344.282v11.975h-3.1v-18.28h3.1v3.17a6.348,6.348,0,0,1,2.238-2.518,5.8,5.8,0,0,1,3.246-.952,6.119,6.119,0,0,1,1.79.3l-.783,2.462a7.093,7.093,0,0,0-1.381-.15,4.955,4.955,0,0,0-3.17,1.063A5.921,5.921,0,0,0,477.735,344.282Z" transform="translate(-369.436 -337.307)"/></g></g></svg>